<!--?xml version="1.0" standalone="no"?-->

<svg version="1.0" xmlns="http://www.w3.org/2000/svg" width="300.000000pt" height="300.000000pt" viewBox="0 0 300.000000 300.000000" preserveAspectRatio="xMidYMid meet">
<g transform="translate(0.000000,300.000000) scale(0.100000,-0.100000)" fill="#060606" stroke="none">
<path d="M916 2979 c-337 -59 -605 -248 -778 -549 -73 -127 -138 -376 -138
-525 0 -78 34 -271 60 -349 96 -277 290 -497 555 -629 133 -66 226 -91 393
-107 85 -8 109 -7 132 5 74 38 94 128 42 186 -27 30 -34 32 -123 40 -163 14
-271 47 -405 124 -75 44 -213 174 -263 248 -286 422 -144 995 305 1234 44 23
122 54 174 69 82 24 113 28 225 28 112 0 143 -4 224 -28 363 -106 603 -404
628 -781 6 -85 8 -92 39 -122 27 -28 40 -33 77 -33 55 0 102 34 116 84 9 35
-1 181 -19 269 -27 133 -123 332 -212 441 -177 217 -403 348 -686 396 -138 24
-203 24 -346 -1z" id="node1" class="node"></path>
<path d="M965 2576 c-131 -26 -229 -75 -329 -168 -159 -145 -237 -335 -222
-543 12 -184 71 -316 197 -444 100 -101 259 -183 356 -183 42 0 52 5 80 36 27
29 33 44 33 80 0 58 -26 90 -98 116 -217 79 -332 228 -332 432 0 178 95 326
260 406 140 68 296 55 432 -36 95 -63 135 -120 194 -276 24 -61 59 -89 113
-89 83 0 131 66 112 153 -52 241 -250 441 -506 510 -67 18 -214 21 -290 6z" id="node2" class="node"></path>
<path d="M874 2162 c-6 -4 -16 -17 -22 -28 -9 -18 -5 -36 22 -100 18 -44 45
-108 60 -144 15 -36 33 -78 41 -95 7 -16 61 -142 120 -280 58 -137 112 -263
120 -280 7 -16 32 -75 55 -130 23 -55 48 -113 55 -130 7 -16 25 -57 39 -90 13
-33 55 -130 91 -215 36 -85 78 -182 92 -215 40 -94 49 -105 86 -105 24 0 40 8
57 28 13 15 82 92 154 172 71 80 133 149 138 155 5 5 155 -137 366 -348 226
-226 365 -357 378 -357 26 0 274 249 274 275 0 13 -126 146 -355 375 -195 195
-355 360 -355 367 0 6 13 22 29 35 15 13 98 85 183 160 105 93 157 145 160
162 5 26 -15 66 -33 66 -9 0 -262 106 -344 145 -16 7 -79 34 -140 60 -120 51
-283 120 -330 141 -16 7 -79 33 -140 59 -60 26 -166 71 -235 100 -69 30 -195
83 -280 120 -85 36 -174 75 -198 85 -45 21 -70 24 -88 12z" id="node3" class="node"></path>
</g>
<g transform="translate(0.000000,300.000000) scale(0.100000,-0.100000)" fill="#A0A0A0" stroke="none">



</g>
</svg>