<?xml version="1.0" encoding="utf-8"?>
<!-- Generator: Adobe Illustrator 15.0.0, SVG Export Plug-In . SVG Version: 6.00 Build 0)  -->
<!DOCTYPE svg PUBLIC "-//W3C//DTD SVG 1.1//EN" "http://www.w3.org/Graphics/SVG/1.1/DTD/svg11.dtd">
<svg version="1.1" id="Layer_1" xmlns="http://www.w3.org/2000/svg" xmlns:xlink="http://www.w3.org/1999/xlink" x="0px" y="0px"
	 width="500px" height="500px" viewBox="0 0 500 500" enable-background="new 0 0 500 500" xml:space="preserve">
<g>
	<path fill-rule="evenodd" clip-rule="evenodd" fill="#FFFFFF" d="M262.065,62.873c-0.766,5.574-6.378,6.302-6.88,12.141
		c-6.637-0.647-10.019-4.55-16.592-5.261C237.976,57.768,254.562,58.988,262.065,62.873z"/>
	<path fill-rule="evenodd" clip-rule="evenodd" fill="#FFFFFF" d="M236.57,63.277c-2.664,7.318-11.161,8.803-21.448,8.499
		C217.14,63.812,227.797,64.486,236.57,63.277z"/>
	<path fill-rule="evenodd" clip-rule="evenodd" fill="#FFFFFF" d="M277.038,75.013c-4.991,0-9.982,0-14.973,0
		C260.749,62.866,276.7,66.898,277.038,75.013z"/>
	<path fill-rule="evenodd" clip-rule="evenodd" fill="#FFFFFF" d="M236.57,75.013c-0.507,6.642-5.438,8.861-6.475,14.973
		c-5.476-0.034-10.786,1.088-14.973-0.81c-1.209-0.949-1.432-2.884-2.428-4.046c-3.48,0.296-2.801,4.754-2.833,8.498
		c-5.27,0.819-6.66-2.243-11.332-2.023c2.288-3.06-2.234-6.239-0.404-10.117C211.528,79.918,222.502,75.918,236.57,75.013z"/>
	<path fill-rule="evenodd" clip-rule="evenodd" fill="#FFFFFF" d="M243.45,75.013c3.566,1.965,7.711,3.35,11.736,4.856
		c-2.258,2.598-0.753,8.959-2.832,11.736c-4.785-2.717-12.667,0.05-15.378-4.856C236.763,80.466,241.771,79.405,243.45,75.013z"/>
	<path fill-rule="evenodd" clip-rule="evenodd" fill="#FFFFFF" d="M277.443,78.656c0,2.697,0,5.395,0,8.093
		c-3.916,2.577-13.383,1.702-19.021,1.214C256.353,78.454,270.071,73.699,277.443,78.656z"/>
	<path fill-rule="evenodd" clip-rule="evenodd" fill="#FFFFFF" d="M282.704,78.656c4.106,0.614,7.907,1.535,11.331,2.832
		c0,2.698,0,5.396,0,8.094c-4.364-1.511-8.728,2.199-13.354,0.404C280.194,85.049,283.359,83.762,282.704,78.656z"/>
	<path fill-rule="evenodd" clip-rule="evenodd" fill="#FFFFFF" d="M304.151,86.749c-0.19,4.778,3.674,5.499,3.643,10.117
		c-3.993-0.148-7.726,1.924-10.521-0.405c-0.455-3.152,1.182-4.214,2.023-6.07c0.331-1.545-0.861-1.566-1.619-2.023
		C298.428,86.421,301.46,86.754,304.151,86.749z"/>
	<path fill-rule="evenodd" clip-rule="evenodd" fill="#FFFFFF" d="M193.27,98.484c-4.147,0.1-8.329,0.236-10.522-1.619
		C182.697,84.755,200.647,86.313,193.27,98.484z"/>
	<path fill-rule="evenodd" clip-rule="evenodd" fill="#FFFFFF" d="M273.801,92.01c-1.245,4.96-9.201,3.208-8.498,10.117
		c-5.723,0.057-8.242-3.09-11.331-5.666C255.625,89.699,266.422,91.982,273.801,92.01z"/>
	<path fill-rule="evenodd" clip-rule="evenodd" fill="#FFFFFF" d="M293.63,92.01c1.577,2.801,0.456,8.077-1.214,10.117
		c-8.632,1.347-8.014-6.555-14.973-6.88C279.368,89.141,289.493,95.604,293.63,92.01z"/>
	<path fill-rule="evenodd" clip-rule="evenodd" fill="#FFFFFF" d="M239.807,93.224c-2.935,4.349-6.26,8.308-8.093,13.759
		c-6.525,0.455-5.188-6.953-9.712-8.499C224.257,93.119,232.637,91.178,239.807,93.224z"/>
	<path fill-rule="evenodd" clip-rule="evenodd" fill="#FFFFFF" d="M262.065,110.22c-4.965,7.109-22.714,7.143-29.946,2.024
		c4.114-6.542,8.665-12.648,14.973-16.997C255.832,96.489,257.122,105.182,262.065,110.22z"/>
	<path fill-rule="evenodd" clip-rule="evenodd" fill="#FFFFFF" d="M209.861,98.484c0.679,5.67-5.587,4.395-5.261,9.713
		c-3.587-1.613-8.364-3.944-6.475-9.713C200.459,96.191,207.494,96.336,209.861,98.484z"/>
	<path fill-rule="evenodd" clip-rule="evenodd" fill="#FFFFFF" d="M287.155,107.388c-0.364,3.413-0.069,7.485-1.619,9.712
		c-6.055-1.094-12.386-1.912-19.829-1.619c-1.896-9.331,3.279-15.056,8.499-18.616C281.269,97.627,281.406,105.313,287.155,107.388z
		"/>
	<path fill-rule="evenodd" clip-rule="evenodd" fill="#FFFFFF" d="M226.453,115.481c-7.272-0.123-14.125,0.174-19.829,1.619
		c-1.271-7.706,5.183-10.935,6.879-16.997C223.024,99.766,226.542,107.555,226.453,115.481z"/>
	<path fill-rule="evenodd" clip-rule="evenodd" fill="#FFFFFF" d="M304.151,101.722c2.817,3.677,4.591,10.494,3.237,16.997
		c-4.248-1.146-5.924-4.867-9.712-6.475c-0.299,2.997,1.842,3.553,1.619,6.475c-1.881-1.492-4.853-1.891-8.498-1.619
		C289.207,107.333,293.157,100.191,304.151,101.722z"/>
	<path fill-rule="evenodd" clip-rule="evenodd" fill="#FFFFFF" d="M311.031,102.127c9.438,4.378,21.644,7.953,18.615,23.471
		c-6.158-0.021-8.025-6.882-14.973-3.642C316.25,112.788,308.891,110.523,311.031,102.127z"/>
	<path fill-rule="evenodd" clip-rule="evenodd" fill="#FFFFFF" d="M186.39,105.364c0.456,3.423-1.397,4.538-2.023,6.88
		c-3.593-0.319-5.2-2.623-8.093-3.643C176.766,104.421,183.219,102.085,186.39,105.364z"/>
	<path fill-rule="evenodd" clip-rule="evenodd" fill="#FFFFFF" d="M188.009,122.361c-4.751-7.724,1.413-16.65,8.902-13.759
		C205.77,112.021,198.778,124.283,188.009,122.361z"/>
	<path fill-rule="evenodd" clip-rule="evenodd" fill="#FFFFFF" d="M181.129,122.361c-6.149,1-10.083,4.216-16.592,4.856
		C156.018,113.09,184.183,105.159,181.129,122.361z"/>
	<path fill-rule="evenodd" clip-rule="evenodd" fill="#FFFFFF" d="M266.112,118.719c0.366,3.136-3.473,4.318-6.476,5.261
		c-5.435,1.707-12.174,1.3-19.424,1.619c-23.115,1.016-46.517,6.448-70.01,6.475C191.626,117.075,231.409,120.437,266.112,118.719z"
		/>
	<path fill-rule="evenodd" clip-rule="evenodd" fill="#FFFFFF" d="M272.587,120.337c18.418,0.602,37.182,0.859,50.181,6.879
		c-1.449,9.203-10.488,1.203-15.783,0c-11.104-2.523-28.701,4.105-33.992-5.261C272.678,121.596,272.556,121.042,272.587,120.337z"
		/>
	<path fill-rule="evenodd" clip-rule="evenodd" fill="#FFFFFF" d="M258.828,127.217c4.188-0.985,11.193-1.624,13.759,1.215
		c0.847,2.152,0.36,5.498-0.405,7.284C264.222,136.391,259.803,133.526,258.828,127.217z"/>
	<path fill-rule="evenodd" clip-rule="evenodd" fill="#FFFFFF" d="M233.333,128.835c-0.915,4.077-5.159,4.823-4.856,10.117
		c-7.306,2.245-8.608-4.829-13.354-6.475C217.065,127.221,226.856,128.283,233.333,128.835z"/>
	<path fill-rule="evenodd" clip-rule="evenodd" fill="#FFFFFF" d="M248.306,153.926c-1.865-3.058-1.303-7.022-1.214-11.331
		c-4.843-0.257-3.365,5.808-3.642,10.117c-4.69-0.436-8.129-2.123-11.736-3.642c-1.087-11.711,4.252-20.274,14.569-20.638
		c6.836-0.242,17.257,5.376,17.401,12.14C263.844,148.079,254.053,151.06,248.306,153.926z"/>
	<path fill-rule="evenodd" clip-rule="evenodd" fill="#FFFFFF" d="M300.914,140.977c-1.99,2.999-4.79,5.192-5.261,9.712
		c-3.237,0-6.475,0-9.712,0c0.847-4.22-2.157-4.588-2.023-8.093c-3.148,1.168-3.402,5.231-3.237,9.712
		c-7.376-0.987-10.559-6.168-10.117-14.973C276.982,127.597,298.519,127.842,300.914,140.977z"/>
	<path fill-rule="evenodd" clip-rule="evenodd" fill="#FFFFFF" d="M160.491,147.451c-1.846-0.178-1.983-2.065-4.452-1.619
		c-1.574-6.171,2.461-18.179,8.093-14.569C168.558,134.102,166.555,146.239,160.491,147.451z"/>
	<path fill-rule="evenodd" clip-rule="evenodd" fill="#FFFFFF" d="M311.031,130.454c2.157,8.21-13.485,9.149-11.735,2.428
		C300.187,129.465,306.253,130.794,311.031,130.454z"/>
	<path fill-rule="evenodd" clip-rule="evenodd" fill="#FFFFFF" d="M334.908,141.786c-1.689,0.591-3.307,1.098-5.262,0.404
		c-4.396-4.27-1.263-14.625,4.856-11.331C337.313,132.373,337.063,139.072,334.908,141.786z"/>
	<path fill-rule="evenodd" clip-rule="evenodd" fill="#FFFFFF" d="M213.503,132.478c3.093,4.057,4.113,10.186,9.712,11.736
		c-3.163,4.662-5.171,10.478-13.354,10.117c-1.325-2.225-2.318-5.4-1.619-8.498c-3.889,0.195-1.003,5.157-1.619,8.093
		c-4.662,1.776-7.031-2.102-11.736-1.619c1.642-6.183,4.482-11.165,4.856-18.616C203.11,131.576,208.612,132.122,213.503,132.478z"
		/>
	<path fill-rule="evenodd" clip-rule="evenodd" fill="#FFFFFF" d="M196.102,134.906c1.231,7.561-11.69,8.922-11.331,1.213
		C186.298,133.471,193.448,132.749,196.102,134.906z"/>
	<path fill-rule="evenodd" clip-rule="evenodd" fill="#FFFFFF" d="M322.768,134.097c1.407,6.837,8.342,14.689,3.237,21.853
		c-6.063-0.007-9.649-2.49-9.712-8.498c-3.122,0.116-1.622,4.853-3.237,6.475c-5.581,0.755-11.56-3.846-10.522-8.903
		C302.986,142.821,315.324,131.984,322.768,134.097z"/>
	<path fill-rule="evenodd" clip-rule="evenodd" fill="#FFFFFF" d="M189.627,154.331c-7.389,1.514-13.539,4.267-21.853,4.856
		C153.693,141.941,191.9,130.015,189.627,154.331z"/>
	<path fill-rule="evenodd" clip-rule="evenodd" fill="#FFFFFF" d="M331.266,154.331c-4.773-14.452,20.234-17.538,20.234-5.261
		C351.5,157.95,338.089,157.951,331.266,154.331z"/>
	<path fill-rule="evenodd" clip-rule="evenodd" fill="#FFFFFF" d="M162.514,162.829c-7.821,1.251-16.431,1.178-20.234-3.643
		c-1.332-9.155,5.223-10.424,8.499-14.973C156.548,148.314,164.821,151.991,162.514,162.829z"/>
	<path fill-rule="evenodd" clip-rule="evenodd" fill="#FFFFFF" d="M265.707,144.214c2.939,0.973,2.067,5.756,4.451,7.284
		c-2.434,2.46-6.916-1.692-9.307,0.81C259.124,147.877,265.15,147.707,265.707,144.214z"/>
	<path fill-rule="evenodd" clip-rule="evenodd" fill="#FFFFFF" d="M233.333,153.926c1.601,4.197-1.701,6.54-1.619,10.522
		c-6.328-0.417-9.933-3.556-10.117-10.117C225.482,153.838,229.609,152.296,233.333,153.926z"/>
	<path fill-rule="evenodd" clip-rule="evenodd" fill="#FFFFFF" d="M296.059,154.331c-0.235,5.092-0.02,10.868-3.643,11.736
		c-4.887,1.171-8.896-5.376-9.712-10.522C286.289,153.381,290.837,154.491,296.059,154.331z"/>
	<path fill-rule="evenodd" clip-rule="evenodd" fill="#FFFFFF" d="M268.944,155.949c-1.491,4.982-5.724,7.227-9.712,9.712
		c-2.585-2-4.567-4.604-4.047-9.712C258.701,152.388,264.189,155.943,268.944,155.949z"/>
	<path fill-rule="evenodd" clip-rule="evenodd" fill="#FFFFFF" d="M299.296,155.949c18.892,2.826,42.933,0.501,50.18,14.973
		c-7.896-2.355-19.167-1.336-23.876-6.879C315.02,163.589,299.365,167.851,299.296,155.949z"/>
	<path fill-rule="evenodd" clip-rule="evenodd" fill="#FFFFFF" d="M357.975,166.066c-3.237,0-6.475,0-9.712,0
		c-3.83-4.201,0.892-11.77,5.666-9.713C356.772,157.58,356.838,162.319,357.975,166.066z"/>
	<path fill-rule="evenodd" clip-rule="evenodd" fill="#FFFFFF" d="M203.791,157.568c0.542,1.548-2.581,2.794-4.452,4.047
		c-13.428,8.992-34.192,13.128-55.036,14.569C159.274,165.598,178.502,155.162,203.791,157.568z"/>
	<path fill-rule="evenodd" clip-rule="evenodd" fill="#FFFFFF" d="M258.828,173.755c-5.642,4.463-19.331,6.081-27.114,2.428
		c0.228-7.227,0.902-12.551,4.452-15.782C245.038,152.322,257.917,164.013,258.828,173.755z"/>
	<path fill-rule="evenodd" clip-rule="evenodd" fill="#FFFFFF" d="M283.918,177.802c-7.827-1.616-18.68-0.204-21.853-6.475
		c0.756-13.504,21.954-15.866,23.471-2.428C285.946,172.536,284.905,174.789,283.918,177.802z"/>
	<path fill-rule="evenodd" clip-rule="evenodd" fill="#FFFFFF" d="M137.423,160.806c1.18,0.438,2.393,0.845,2.833,2.023
		c-0.307,2.796-3.141,3.064-4.452,4.856c1.042,1.657,3.128,2.268,4.856,3.237c0,3.507,0,7.015,0,10.522
		c-3.584,0.8-7.968,4.715-11.735,1.619C130.003,173.89,134.536,168.17,137.423,160.806z"/>
	<path fill-rule="evenodd" clip-rule="evenodd" fill="#FFFFFF" d="M226.453,165.661c-0.434,1.859-2.208,2.379-2.428,4.452
		c0.629,1.799,3.791,1.066,6.07,1.214c-1.011,9.645-12.531,8.782-22.258,9.712C199.593,169.075,218.27,154.11,226.453,165.661z"/>
	<path fill-rule="evenodd" clip-rule="evenodd" fill="#FFFFFF" d="M202.981,164.448c0,2.158,0,4.317,0,6.475
		c-3.336,0.865-7.539-0.425-6.475-5.261C198.413,165.005,200.063,164.092,202.981,164.448z"/>
	<path fill-rule="evenodd" clip-rule="evenodd" fill="#FFFFFF" d="M294.845,181.444c7.202,6.629,30.59,12.506,19.829,28.328
		c-2.731-5.091-7.186-8.461-10.117-13.354c-2.109,0.453-1.801,3.325-4.452,3.237c-2.023-3.236-2.553-7.969-5.665-10.117
		c-1.91,3.182-4.515,7.026-10.116,5.261c0.368-5.091-1.972-7.471-5.667-8.499c-1.872,0.69-1.025,4.101-1.213,6.475
		c-4.046,0.134-5.366-2.458-10.117-1.619c0.519-3.217-1.097-4.299-1.619-6.475c-2.985,1.062-3.189,4.904-5.666,6.475
		c-3.821,0.181-4.896-2.388-6.069-4.856c-3.113,2.118-7.213,7.774-11.736,3.643c4.216-19.62,32.372-7.609,49.775-9.308
		c-0.394-3.139-3.54-3-3.642-5.666c-0.205-5.361,11.107-10.502,17.807-8.903c1.582,3.948,4.006,7.054,3.237,13.354
		C306.342,182.025,299.477,183.994,294.845,181.444z"/>
	<path fill-rule="evenodd" clip-rule="evenodd" fill="#FFFFFF" d="M328.028,169.709c-0.328,2.505-2.076,3.589-2.023,6.475
		c-3.882-0.491-8-2.257-6.475-6.88C321.463,167.11,326.445,167.36,328.028,169.709z"/>
	<path fill-rule="evenodd" clip-rule="evenodd" fill="#FFFFFF" d="M366.473,184.682c-5.834,1.091-7.95,7.907-6.475,14.973
		c-5.281-0.407-9.692,2.708-13.76,0c-0.186-5.851,0.374-10.958,2.024-14.973c2.697,0,5.396,0,8.093,0
		c-3.348-9.581-16.283,4.436-20.639-3.642c-2.26,1.795,1.097,4.054,3.642,3.642c-1.417,2.36-2.545,5.008-4.855,6.475
		c-9.681-0.792-5.673-13.938-3.237-19.829c8.617,4.093,22.133,2.616,27.113-3.643C365.575,168.852,367.303,175.489,366.473,184.682z
		"/>
	<path fill-rule="evenodd" clip-rule="evenodd" fill="#FFFFFF" d="M202.981,174.565c-0.096,7.707-6.284,14.075-14.164,14.164
		c-4.773,0.054-11.225-3.773-10.926-8.903C178.339,172.117,196.602,168.392,202.981,174.565z"/>
	<path fill-rule="evenodd" clip-rule="evenodd" fill="#FFFFFF" d="M172.63,174.565c4.628,4.275,0.495,17.311,11.736,14.973
		c-0.282,8.082-3.354,13.373-11.331,13.76C168.315,195.941,170.905,183.293,172.63,174.565z"/>
	<path fill-rule="evenodd" clip-rule="evenodd" fill="#FFFFFF" d="M164.537,198.036c-9.906,1.812-8.449-7.738-12.95-11.332
		c-3.197-0.364-5.198,0.468-7.689,0.81c0-2.023,0-4.047,0-6.07c6.251-1.843,12.618-3.57,19.021-5.261
		C168.944,179.479,168.148,192.635,164.537,198.036z"/>
	<path fill-rule="evenodd" clip-rule="evenodd" fill="#FFFFFF" d="M324.386,179.421c-0.598,6.668,2.45,9.689,3.643,14.569
		c-7.998,6.362-20.12-4.892-18.615-12.141C310.432,176.938,319.729,177.171,324.386,179.421z"/>
	<path fill-rule="evenodd" clip-rule="evenodd" fill="#FFFFFF" d="M238.594,181.04c-0.189,3.329-1.479,6.759-0.405,10.117
		c-5.526,0.68-12.202,0.208-16.996,1.619c-1.313-2.464-1.333-6.221-1.214-10.117C225.218,180.676,232.333,178.6,238.594,181.04z"/>
	<path fill-rule="evenodd" clip-rule="evenodd" fill="#FFFFFF" d="M216.336,184.682c-0.691,4.603,2.714,5.11,2.023,9.712
		c-4.042,0.404-6.746-1-10.522,0c-5.059,1.342-8.725,7.431-10.926,0c-1.303-0.658-2.191-0.192-3.642,0
		C194.388,184.836,205.866,183.546,216.336,184.682z"/>
	<path fill-rule="evenodd" clip-rule="evenodd" fill="#FFFFFF" d="M149.159,206.129c-2.919-1.396-7.081-1.552-6.88-6.069
		c-2.954,1.902-5.835,3.876-11.331,3.237c-2.872-3.545-1.395-11.369,0-15.378C144.223,184.745,154.268,193.491,149.159,206.129z"/>
	<path fill-rule="evenodd" clip-rule="evenodd" fill="#FFFFFF" d="M339.358,191.966c3.373,3.778,7.285,7.014,7.285,14.164
		c-6.545,8.168-15.039-1.059-13.76-11.331C336.065,194.878,339.18,194.889,339.358,191.966z"/>
	<path fill-rule="evenodd" clip-rule="evenodd" fill="#FFFFFF" d="M196.102,197.631c-1.85,5.436-6.827,7.742-8.093,13.76
		c-3.517-0.666-5.22-3.144-6.88-5.666C182.538,199.688,188.839,194.003,196.102,197.631z"/>
	<path fill-rule="evenodd" clip-rule="evenodd" fill="#FFFFFF" d="M329.646,198.036c1.063,5.548,4.974,8.247,4.856,14.973
		c-7.403-1.873-7.391,3.67-8.094,8.499c-3.206,0.373-3.769-1.897-6.879-1.619c0.818-7.545,1.541-15.186,3.237-21.853
		C325.061,198.036,327.354,198.036,329.646,198.036z"/>
	<path fill-rule="evenodd" clip-rule="evenodd" fill="#FFFFFF" d="M164.132,201.273c-0.913,4.619-4.606,6.456-4.856,11.736
		C144.982,213.372,154.546,192.469,164.132,201.273z"/>
	<path fill-rule="evenodd" clip-rule="evenodd" fill="#FFFFFF" d="M368.091,201.273c0.995,1.027,1.055,3.764,0.405,5.261
		c-1.755,0.942-3.713,1.682-5.261,2.833c-0.192,1.449-0.659,2.338,0,3.642c-6.827-3.161-9.309,2.792-12.949,5.261
		c-4.24-2.968-2.726-11.058-0.405-14.973C357.1,203.771,360.599,200.525,368.091,201.273z"/>
	<path fill-rule="evenodd" clip-rule="evenodd" fill="#FFFFFF" d="M164.132,204.916c3.372,0,6.745,0,10.117,0
		c-0.386,7.976-1.575,15.151-10.117,14.973C160.715,215.766,164.32,210.483,164.132,204.916z"/>
	<path fill-rule="evenodd" clip-rule="evenodd" fill="#FFFFFF" d="M133.781,206.535c1.753,0,3.507,0,5.261,0
		c1.749,3.242,2.225,7.757,3.237,11.735C134.7,220.595,132.956,213.928,133.781,206.535z"/>
	<path fill-rule="evenodd" clip-rule="evenodd" fill="#FFFFFF" d="M151.183,210.581c0.208,4.256-2.645,5.449-4.452,7.689
		c-2.986-0.97-3.324-6.599-2.428-10.117C147.727,207.832,149.529,209.133,151.183,210.581z"/>
	<path fill-rule="evenodd" clip-rule="evenodd" fill="#FFFFFF" d="M184.366,218.27c-7.06-0.989-4.016,8.125-11.331,6.88
		c-3.966-6.216,3.931-9.741,4.856-14.973C181.816,211.108,184.514,213.266,184.366,218.27z"/>
	<path fill-rule="evenodd" clip-rule="evenodd" fill="#FFFFFF" d="M374.971,241.742c-6.287-0.65-14.073-2.305-19.829,0
		c5.97,4.459,21.59,1.287,18.211,13.759c-3.283,5.051-11.074-1.015-14.974,2.832c1.408,6.788,9.395,8.813,17.806,7.285
		c6,10.727,15.879,17.574,17.401,32.778c-2.669,1.358-6.255,3.568-10.116,2.429c-0.739,6.271,2.539,8.521,2.023,14.567
		c-3.021,2.907-8.202,4.922-13.76,4.048c-1.26-13.863,9.518-30.397-1.618-38.444c2.511,14.744-1.708,28.426-1.619,43.301
		c5.604,1.141,12.342,1.147,14.974,5.261c-2.666,7.584-7.064,14.68-5.262,25.495c-8.714,2.122-23.369,2.923-29.945-1.619
		c-5.31-26.093-4.175-67.509-1.619-98.743c0.684-8.353-1.999-20.454,0-27.518c1.593-5.629,16.229-9.763,19.829-13.759
		C373.293,218.869,375.416,229.021,374.971,241.742z"/>
	<path fill-rule="evenodd" clip-rule="evenodd" fill="#FFFFFF" d="M160.895,219.889c-1.73,6.7-2.907,16.999,1.619,21.449
		c-2.029,0.938-5.796,0.139-8.499,0.404c-1.648-6.31-1.594-14.323-6.475-17.401c1.931-1.714,4.424-4.559,3.642-7.689
		C155.551,215.037,158.135,218.561,160.895,219.889z"/>
	<path fill-rule="evenodd" clip-rule="evenodd" fill="#FFFFFF" d="M344.62,226.769c-2.166,0.521-4.519,1.877-6.475,0.404
		C335.948,219.883,345.746,218.191,344.62,226.769z"/>
	<path fill-rule="evenodd" clip-rule="evenodd" fill="#FFFFFF" d="M168.584,402.806c0.492-0.782-1.847-0.979-2.833-1.619
		c-7.223-4.701,2.842-7.622,5.261-12.546c-7.479,0.493-10.871,7.188-17.806,6.88c-3.537-8.681,5.487-11.769,10.522-14.567
		c-15.185,1.424-7.41-20.109-15.378-25.9c-2.701,0.879-4.294,3.372-6.879,4.451c-8.9,3.715-26.602,3.033-27.923-5.262
		c-1.039-6.521,6.833-13.189,2.024-21.042c1.855-4.66,8.042-8.252,14.569-5.666c-5.5-17.65-10.566-54.595,8.902-61.916
		c-1.814-6.582-16.009-2.966-16.997-9.309c-1.211-7.786,12.88-6.15,18.615-9.307c-3.631-6.425-16.204,0.512-21.853-3.237
		c3.339-4.764,3.729-18.32,9.308-21.448c3.379-1.895,8.004-0.238,13.759-0.809c19.138,22.215,7.785,73.361,14.164,107.645
		c-6.467,7.639-5.018,19.632,0.809,29.138c2.437,3.977,7.933,10.958,11.331,11.735c5.584,1.278,8.693-3.351,14.569-2.023
		c7.383,10.338,5.701,34.438-9.308,35.207c58.88,8.029,129.256-3.909,188.176,4.048c2.147,6.924,3.122,18.505,0,25.09
		c-71.17,2.858-148.902,5.846-220.956,1.618C136.926,412.232,148.525,394.653,168.584,402.806z"/>
	<path fill-rule="evenodd" clip-rule="evenodd" fill="#FFFFFF" d="M334.503,223.126c-0.647,5.235,1.152,8.021,1.618,12.141
		c-3.972-0.086-5.863,2.767-9.712,1.619C321.804,231.154,325.792,217.636,334.503,223.126z"/>
	<path fill-rule="evenodd" clip-rule="evenodd" fill="#FFFFFF" d="M169.393,226.769c2.833,0,5.666,0,8.499,0
		c-0.48,3.567-2.665,5.428-2.024,10.117c-2.053-0.24-2.066-2.521-3.642-3.237c-1.3-0.579-0.985,2.459-1.619,1.213
		C167.742,234.047,170.098,230.065,169.393,226.769z"/>
	<path fill-rule="evenodd" clip-rule="evenodd" d="M312.245,236.48c-16.266,12.049-54.929,0.537-52.608,30.756
		c1.066,13.883,13.058,21.084,15.782,33.184c-9.77,9.229-45.145,13.858-50.18-2.832c8.948,3.921,25.86,7.446,35.207,1.618
		c-9.522-29.756-2.882-61.821,29.541-64.344C298.374,234.21,304.557,235.696,312.245,236.48z"/>
	<path fill-rule="evenodd" clip-rule="evenodd" d="M236.975,256.31c-1.474,0.742-2.086-1.414-2.833-2.022
		c-9.57-7.805-28.701-15.229-46.943-10.927c-0.439-1.566,2.071-2.567,3.237-3.237c13.055-7.503,42.606-2.701,46.539,9.308
		C237.729,251.733,237.521,254.177,236.975,256.31z"/>
	<path fill-rule="evenodd" clip-rule="evenodd" fill="#FFFFFF" d="M326.409,239.313c3.227,0.958,10.295,1.574,14.974,2.428
		c-0.13,20.646,4.757,45.59-4.856,59.083c-3.639-1.084-6.239-3.204-8.498-5.666C334.724,279.895,332.461,253.411,326.409,239.313z"
		/>
	<path fill-rule="evenodd" clip-rule="evenodd" fill="#FFFFFF" d="M174.249,241.742c1.919,4.28-2.438,5.605-3.237,8.499
		c-2.014-1.224-3.083-3.392-3.237-6.475C170.358,243.516,171.619,241.944,174.249,241.742z"/>
	<path fill-rule="evenodd" clip-rule="evenodd" fill="#FFFFFF" d="M169.393,255.096c-10.574,12.393,1.166,31.292-1.619,47.348
		c-17.601-3.396-11.549-40.774-8.498-55.846c0.152-0.753-0.137-1.31,0.809-1.214C165.565,246.244,166.877,251.272,169.393,255.096z"
		/>
	<path fill-rule="evenodd" clip-rule="evenodd" d="M225.239,251.858c0.367,5.299,1.681,9.651,3.237,13.76
		c-14.943,2.779-36.214,4.389-38.849-10.522C198.83,251.479,214.625,245.418,225.239,251.858z M211.48,255.096
		c3.598,0.521,6.193,3.035,10.117,2.024C222.139,251.201,212.739,250.449,211.48,255.096z M199.744,259.144
		c1.484,7.51,12.74,4.887,20.234,4.451C219.587,254.858,205.834,256.737,199.744,259.144z"/>
	<path fill-rule="evenodd" clip-rule="evenodd" d="M309.413,257.524c-3.299,13.379-26.851,13.126-38.85,7.688
		c0.023-5.102,4.301-5.951,6.069-9.307c0.429-2.047-0.922-2.315-0.809-4.048C287.576,249.268,303.737,250.272,309.413,257.524z
		 M280.681,258.738c1.668,8.409,19.6,6.743,21.853,0C296.778,256.115,286.443,256.17,280.681,258.738z"/>
	<path fill-rule="evenodd" clip-rule="evenodd" fill="#FFFFFF" d="M221.597,257.12c-3.924,1.011-6.52-1.504-10.117-2.024
		C212.739,250.449,222.139,251.201,221.597,257.12z"/>
	<path fill-rule="evenodd" clip-rule="evenodd" fill="#FFFFFF" d="M302.533,258.738c-2.253,6.743-20.185,8.409-21.853,0
		C286.443,256.17,296.778,256.115,302.533,258.738z"/>
	<path fill-rule="evenodd" clip-rule="evenodd" fill="#FFFFFF" d="M219.979,263.595c-7.494,0.436-18.75,3.059-20.234-4.451
		C205.834,256.737,219.587,254.858,219.979,263.595z"/>
	<path fill-rule="evenodd" clip-rule="evenodd" fill="#FFFFFF" d="M111.928,319.44c-0.244-3.804,0.504-8.597-0.404-11.735
		c-2.258-2.745-6.559-1.607-7.689-4.856c-1.184-3.401,4.431-11.236,6.88-16.188c3.692-7.466,6.081-11.651,9.712-16.187
		c0.344-0.073,0.382,0.158,0.405,0.405c12.156,6.551-2.028,18.978-2.023,27.923c0.003,8.491,12.072,16.525,3.642,23.876
		C117.967,324.144,113.596,322.126,111.928,319.44z"/>
	<path fill-rule="evenodd" clip-rule="evenodd" fill="#FFFFFF" d="M339.764,319.44c-5.002,1.085-9.098-2.839-13.759-2.023
		c-4.686-14.43,14.502-17.698,15.783-6.069C342.183,314.943,340.699,316.429,339.764,319.44z"/>
	<path fill-rule="evenodd" clip-rule="evenodd" d="M290.798,321.06c-0.098,5.434-3.651,7.411-9.712,6.879
		c-4.196,22.072-52.992,25.569-57.87,1.619c-6.135-0.611-13.387-0.103-13.354-6.88C237.369,322.666,264.423,322.203,290.798,321.06z
		 M228.477,331.176c4.357,14.312,37.539,14.251,43.705,1.619C260.127,328.685,242.841,330.11,228.477,331.176z"/>
	<path fill-rule="evenodd" clip-rule="evenodd" fill="#FFFFFF" d="M341.383,326.32c0.802,9.18,1.681,18.282,1.618,28.327
		c-9.797,0.643-20.398-15.493-16.187-25.9C328.822,323.784,336.199,322.944,341.383,326.32z"/>
	<path fill-rule="evenodd" clip-rule="evenodd" fill="#FFFFFF" d="M171.012,327.938c-1.04,7.749-0.405,28.963-9.712,28.328
		c-4.447-0.304-6.657-9.81-6.07-16.187C156.06,331.064,161.269,324.372,171.012,327.938z"/>
	<path fill-rule="evenodd" clip-rule="evenodd" fill="#FFFFFF" d="M272.182,332.795c-6.166,12.632-39.348,12.692-43.705-1.619
		C242.841,330.11,260.127,328.685,272.182,332.795z"/>
	<path fill-rule="evenodd" clip-rule="evenodd" fill="#FFFFFF" d="M174.654,332.795c9.935,1.126,7.953,14.169,9.712,23.472
		c-4.087-1.442-10.199-0.863-13.354-3.237C170.974,345.033,173.201,339.301,174.654,332.795z"/>
	<path fill-rule="evenodd" clip-rule="evenodd" fill="#FFFFFF" d="M314.269,353.029c-0.773-6.979,3.047-9.363,5.262-13.354
		c9.359-0.115,10.181,16.046,0.808,16.592C318.621,356.399,316.697,353.508,314.269,353.029z"/>
	<path fill-rule="evenodd" clip-rule="evenodd" fill="#FFFFFF" d="M331.671,361.122c-2.62-0.077-3.562-1.834-6.88-1.214
		C324.707,353.065,336.687,354.803,331.671,361.122z"/>
	<path fill-rule="evenodd" clip-rule="evenodd" fill="#FFFFFF" d="M181.129,361.933c-2.772,7.739-17.454,6.423-16.592-3.643
		C170.073,356.399,179.057,356.922,181.129,361.933z"/>
	<path fill-rule="evenodd" clip-rule="evenodd" fill="#FFFFFF" d="M344.215,358.29c1.377,9.066-4.23,14.653-9.712,18.21
		c2.964,3.211,10.628,3.527,8.498,10.522c-2.157,1.618-5.765,1.788-9.712,1.618c0.67,3.919,11.061,1.617,12.949,5.666
		c-0.84,10.676-14.855,8.065-23.471,6.07c-4.863-7.278-2.222-22.061-6.475-29.946C320.834,361.618,335.074,362.504,344.215,358.29z"
		/>
	<path fill-rule="evenodd" clip-rule="evenodd" fill="#FFFFFF" d="M188.009,360.313c0.344-0.074,0.382,0.158,0.404,0.405
		c16.459,13.34,41.527,23.58,71.628,22.256c11.451-0.502,20.415-2.134,28.328-6.069c7.812-3.886,14.251-9.201,22.662-11.735
		c2.068,10.329,5.704,22.995,3.237,35.207c-6.071-0.269-13.218,0.538-18.615-0.405c-0.647-5.503,6.335-3.377,6.88-7.688
		c-21.545,11.891-70.515,14.728-96.719,3.643c-0.778,1.467,1.469,3.376,0.81,6.069c-7.567,0.283-12.975-1.594-18.615-3.237
		C194.785,387.329,185.301,372.514,188.009,360.313z M205.41,384.19c20.917,15.743,74.304,17.353,91.458-2.834
		c0.089-0.509,0.631-0.827-0.403-0.809C275.385,394.692,230.168,391.747,205.41,384.19z"/>
	<path fill-rule="evenodd" clip-rule="evenodd" d="M296.464,380.548c1.034-0.019,0.492,0.3,0.403,0.809
		c-17.153,20.187-70.541,18.577-91.458,2.834C230.168,391.747,275.385,394.692,296.464,380.548z"/>
	<path fill-rule="evenodd" clip-rule="evenodd" fill="#FFFFFF" d="M368.496,417.373c7.838,2.564,21.229-3.092,26.709,2.833
		c-0.269,5.882,1.22,11.383-1.214,15.378c-9.18-1.482-21.68,3.685-26.305-2.024C364.097,429.129,369.28,423.859,368.496,417.373z"/>
	<path fill-rule="evenodd" clip-rule="evenodd" fill="#FFFFFF" d="M135.805,418.992c0,4.991,0,9.981,0,14.973
		c-7.725,3.048-21.146,5.372-30.351,2.024C99.375,417.315,120.191,417.347,135.805,418.992z"/>
	<path fill-rule="evenodd" clip-rule="evenodd" d="M98.574,304.468c0-1.349,0-2.699,0-4.048c3.87-11.781,18.5-22.995,19.02-38.85
		c0.209-6.369-2.929-10.915-2.023-18.614c1.045-8.885,8.167-16.926,9.712-25.495c2.09-11.593-1.639-22.982-1.214-33.588
		c0.964-24.028,21.161-35.909,31.97-49.776c0.271-8.902,3.804-14.541,5.261-22.258c4.271-2.877,9.05-5.248,13.354-8.093
		c1.886-17.711,18.756-21.605,29.946-30.756c3.047-2.491,5.41-7.097,8.499-8.902c8.002-4.68,20.905-5.762,30.756-6.07
		c11.97-0.375,24.562,1.84,31.16,7.284c2.619,2.161,4.077,6.998,6.476,8.499c1.823,1.142,5.461,1.195,8.094,2.024
		c7.169,2.255,13.896,5.124,19.829,9.712c0.245,21.362,31.751,17.401,25.09,41.682c14.833,17.542,34.077,30.671,37.23,59.893
		c-1.129,2.52-5.086,1.214-7.284,3.237c-3.82,3.517-0.524,10.118,4.855,7.284c1.211-0.636,1.893-3.733,2.834-2.428
		c5.769,32.449,6.529,69.038,20.64,93.481c1.968,3.41,4.896,6.516,5.664,10.521c-1.833,3.969-8.487,3.114-11.331,6.07
		c5.054,16.568-4.922,31.509-4.047,50.182c-5.999,8.567-28.195,0.939-36.421,7.283c-6.288,17.262,2.241,30.573,11.331,38.849
		c2.952,2.689,8.584,9.791,11.33,10.522c5.732,1.526,12.989-0.446,18.615,0.405c5.668,0.856,9.205,2.179,12.546,6.475
		c-1.073,6.099,1.492,15.39-1.618,20.234c-97.79,2.076-200.01,3.111-297.036-0.405c-1.599-5.645-3.075-16.685,0.405-21.448
		c33.671,6.505,59.196-22.638,43.706-54.228c-10.923,2.14-29.37,3.572-35.612-3.642c-1.822-8.122,3.948-13.992,2.833-20.64
		c-0.491-2.93-3.864-4.603-4.452-7.688c-0.44-2.31,0.545-5.297,0.405-8.093c-0.105-2.093-1.643-4.42-1.62-6.071
		c0.001-0.036,1.083-1.329,1.214-2.022c0.331-1.743-0.268-2.741,0-4.047C105.635,308.467,102.202,306.369,98.574,304.468z
		 M238.594,69.752c6.573,0.711,9.955,4.614,16.592,5.261c0.502-5.838,6.114-6.567,6.88-12.141
		C254.562,58.988,237.976,57.768,238.594,69.752z M215.122,71.776c10.287,0.305,18.784-1.181,21.448-8.499
		C227.797,64.486,217.14,63.812,215.122,71.776z M262.065,75.013c4.99,0,9.981,0,14.973,0
		C276.7,66.898,260.749,62.866,262.065,75.013z M198.125,81.488c-1.83,3.878,2.692,7.058,0.404,10.117
		c4.671-0.22,6.062,2.843,11.332,2.023c0.032-3.744-0.647-8.202,2.833-8.498c0.996,1.163,1.219,3.097,2.428,4.046
		c4.188,1.898,9.497,0.776,14.973,0.81c1.037-6.112,5.968-8.332,6.475-14.973C222.502,75.918,211.528,79.918,198.125,81.488z
		 M236.975,86.749c2.712,4.906,10.594,2.139,15.378,4.856c2.079-2.776,0.574-9.138,2.832-11.736
		c-4.024-1.506-8.17-2.891-11.736-4.856C241.771,79.405,236.763,80.466,236.975,86.749z M258.423,87.963
		c5.638,0.487,15.104,1.363,19.021-1.214c0-2.698,0-5.396,0-8.093C270.071,73.699,256.353,78.454,258.423,87.963z M280.681,89.986
		c4.627,1.795,8.99-1.915,13.354-0.404c0-2.698,0-5.396,0-8.094c-3.424-1.297-7.225-2.218-11.331-2.832
		C283.359,83.762,280.194,85.049,280.681,89.986z M297.677,88.368c0.758,0.457,1.95,0.478,1.619,2.023
		c-0.842,1.856-2.479,2.917-2.023,6.07c2.796,2.329,6.528,0.257,10.521,0.405c0.031-4.618-3.833-5.338-3.643-10.117
		C301.46,86.754,298.428,86.421,297.677,88.368z M182.748,96.866c2.193,1.854,6.375,1.718,10.522,1.619
		C200.647,86.313,182.697,84.755,182.748,96.866z M253.972,96.461c3.089,2.576,5.608,5.723,11.331,5.666
		c-0.703-6.909,7.253-5.157,8.498-10.117C266.422,91.982,255.625,89.699,253.972,96.461z M277.443,95.247
		c6.959,0.325,6.341,8.227,14.973,6.88c1.67-2.04,2.791-7.316,1.214-10.117C289.493,95.604,279.368,89.141,277.443,95.247z
		 M222.002,98.484c4.524,1.545,3.187,8.953,9.712,8.499c1.833-5.451,5.158-9.411,8.093-13.759
		C232.637,91.178,224.257,93.119,222.002,98.484z M247.092,95.247c-6.308,4.349-10.858,10.455-14.973,16.997
		c7.232,5.119,24.981,5.085,29.946-2.024C257.122,105.182,255.832,96.489,247.092,95.247z M198.125,98.484
		c-1.89,5.769,2.888,8.1,6.475,9.713c-0.326-5.318,5.94-4.042,5.261-9.713C207.494,96.336,200.459,96.191,198.125,98.484z
		 M274.206,96.866c-5.22,3.56-10.396,9.285-8.499,18.616c7.443-0.293,13.774,0.524,19.829,1.619c1.55-2.227,1.255-6.299,1.619-9.712
		C281.406,105.313,281.269,97.627,274.206,96.866z M213.503,100.104c-1.697,6.062-8.15,9.291-6.879,16.997
		c5.705-1.445,12.557-1.742,19.829-1.619C226.542,107.555,223.024,99.766,213.503,100.104z M290.798,117.1
		c3.646-0.272,6.617,0.126,8.498,1.619c0.223-2.921-1.918-3.478-1.619-6.475c3.788,1.608,5.464,5.329,9.712,6.475
		c1.354-6.503-0.42-13.32-3.237-16.997C293.157,100.191,289.207,107.333,290.798,117.1z M314.674,121.956
		c6.947-3.24,8.814,3.622,14.973,3.642c3.028-15.518-9.177-19.093-18.615-23.471C308.891,110.523,316.25,112.788,314.674,121.956z
		 M176.273,108.602c2.893,1.02,4.5,3.324,8.093,3.643c0.626-2.342,2.479-3.457,2.023-6.88
		C183.219,102.085,176.766,104.421,176.273,108.602z M196.911,108.602c-7.49-2.891-13.654,6.036-8.902,13.759
		C198.778,124.283,205.77,112.021,196.911,108.602z M164.537,127.217c6.509-0.64,10.442-3.856,16.592-4.856
		C184.183,105.159,156.018,113.09,164.537,127.217z M170.203,132.073c23.493-0.027,46.895-5.459,70.01-6.475
		c7.25-0.318,13.99,0.088,19.424-1.619c3.003-0.942,6.842-2.125,6.476-5.261C231.409,120.437,191.626,117.075,170.203,132.073z
		 M272.992,121.956c5.291,9.366,22.889,2.737,33.992,5.261c5.295,1.203,14.334,9.203,15.783,0
		c-12.999-6.021-31.763-6.278-50.181-6.879C272.556,121.042,272.678,121.596,272.992,121.956z M270.563,137.334
		c-0.441,8.805,2.741,13.986,10.117,14.973c-0.165-4.48,0.089-8.544,3.237-9.712c-0.134,3.505,2.87,3.874,2.023,8.093
		c3.237,0,6.475,0,9.712,0c0.471-4.52,3.271-6.713,5.261-9.712C298.519,127.842,276.982,127.597,270.563,137.334z M272.182,135.715
		c0.766-1.786,1.252-5.132,0.405-7.284c-2.565-2.839-9.571-2.2-13.759-1.215C259.803,133.526,264.222,136.391,272.182,135.715z
		 M215.122,132.478c4.746,1.646,6.048,8.72,13.354,6.475c-0.303-5.294,3.941-6.041,4.856-10.117
		C226.856,128.283,217.065,127.221,215.122,132.478z M263.684,140.571c-0.144-6.764-10.564-12.382-17.401-12.14
		c-10.316,0.364-15.656,8.927-14.569,20.638c3.606,1.52,7.046,3.206,11.736,3.642c0.277-4.309-1.201-10.374,3.642-10.117
		c-0.089,4.308-0.651,8.272,1.214,11.331C254.053,151.06,263.844,148.079,263.684,140.571z M164.132,131.264
		c-5.632-3.61-9.667,8.398-8.093,14.569c2.469-0.446,2.605,1.441,4.452,1.619C166.555,146.239,168.558,134.102,164.132,131.264z
		 M299.296,132.882c-1.75,6.721,13.893,5.782,11.735-2.428C306.253,130.794,300.187,129.465,299.296,132.882z M334.503,130.859
		c-6.119-3.295-9.253,7.061-4.856,11.331c1.955,0.693,3.572,0.187,5.262-0.404C337.063,139.072,337.313,132.373,334.503,130.859z
		 M199.744,133.691c-0.374,7.451-3.214,12.433-4.856,18.616c4.705-0.483,7.074,3.395,11.736,1.619
		c0.616-2.936-2.27-7.898,1.619-8.093c-0.699,3.098,0.294,6.273,1.619,8.498c8.184,0.361,10.192-5.455,13.354-10.117
		c-5.6-1.55-6.62-7.679-9.712-11.736C208.612,132.122,203.11,131.576,199.744,133.691z M184.771,136.12
		c-0.359,7.709,12.563,6.347,11.331-1.213C193.448,132.749,186.298,133.471,184.771,136.12z M302.533,145.023
		c-1.037,5.057,4.941,9.658,10.522,8.903c1.615-1.622,0.115-6.358,3.237-6.475c0.063,6.008,3.648,8.491,9.712,8.498
		c5.104-7.164-1.83-15.016-3.237-21.853C315.324,131.984,302.986,142.821,302.533,145.023z M167.774,159.187
		c8.314-0.589,14.464-3.342,21.853-4.856C191.9,130.015,153.693,141.941,167.774,159.187z M351.5,149.07
		c0-12.277-25.008-9.191-20.234,5.261C338.089,157.951,351.5,157.95,351.5,149.07z M150.778,144.214
		c-3.275,4.549-9.831,5.817-8.499,14.973c3.803,4.821,12.414,4.894,20.234,3.643C164.821,151.991,156.548,148.314,150.778,144.214z
		 M260.852,152.307c2.391-2.502,6.873,1.651,9.307-0.81c-2.384-1.528-1.512-6.311-4.451-7.284
		C265.15,147.707,259.124,147.877,260.852,152.307z M221.597,154.331c0.184,6.561,3.789,9.701,10.117,10.117
		c-0.082-3.982,3.219-6.325,1.619-10.522C229.609,152.296,225.482,153.838,221.597,154.331z M282.704,155.544
		c0.816,5.146,4.825,11.693,9.712,10.522c3.623-0.868,3.407-6.644,3.643-11.736C290.837,154.491,286.289,153.381,282.704,155.544z
		 M255.186,155.949c-0.521,5.107,1.462,7.711,4.047,9.712c3.988-2.485,8.221-4.73,9.712-9.712
		C264.189,155.943,258.701,152.388,255.186,155.949z M325.6,164.043c4.709,5.543,15.98,4.524,23.876,6.879
		c-7.247-14.472-31.288-12.147-50.18-14.973C299.365,167.851,315.02,163.589,325.6,164.043z M353.929,156.354
		c-4.774-2.057-9.496,5.512-5.666,9.713c3.237,0,6.475,0,9.712,0C356.838,162.319,356.772,157.58,353.929,156.354z M144.303,176.184
		c20.844-1.441,41.608-5.577,55.036-14.569c1.871-1.252,4.994-2.499,4.452-4.047C178.502,155.162,159.274,165.598,144.303,176.184z
		 M236.166,160.401c-3.549,3.231-4.224,8.556-4.452,15.782c7.783,3.653,21.473,2.035,27.114-2.428
		C257.917,164.013,245.038,152.322,236.166,160.401z M285.536,168.899c-1.517-13.438-22.715-11.076-23.471,2.428
		c3.173,6.271,14.025,4.858,21.853,6.475C284.905,174.789,285.946,172.536,285.536,168.899z M128.925,183.063
		c3.767,3.097,8.151-0.819,11.735-1.619c0-3.507,0-7.015,0-10.522c-1.728-0.97-3.814-1.581-4.856-3.237
		c1.311-1.792,4.145-2.06,4.452-4.856c-0.44-1.179-1.653-1.585-2.833-2.023C134.536,168.17,130.003,173.89,128.925,183.063z
		 M207.837,181.04c9.727-0.93,21.247-0.067,22.258-9.712c-2.28-0.148-5.441,0.584-6.07-1.214c0.22-2.073,1.994-2.593,2.428-4.452
		C218.27,154.11,199.593,169.075,207.837,181.04z M196.507,165.661c-1.064,4.836,3.139,6.126,6.475,5.261c0-2.158,0-4.316,0-6.475
		C200.063,164.092,198.413,165.005,196.507,165.661z M309.413,179.421c0.769-6.3-1.655-9.407-3.237-13.354
		c-6.699-1.6-18.012,3.542-17.807,8.903c0.102,2.667,3.248,2.527,3.642,5.666c-17.403,1.698-45.559-10.312-49.775,9.308
		c4.523,4.131,8.623-1.525,11.736-3.643c1.174,2.468,2.248,5.037,6.069,4.856c2.477-1.571,2.681-5.413,5.666-6.475
		c0.522,2.175,2.138,3.257,1.619,6.475c4.751-0.839,6.071,1.753,10.117,1.619c0.188-2.375-0.659-5.785,1.213-6.475
		c3.695,1.028,6.035,3.408,5.667,8.499c5.602,1.765,8.206-2.08,10.116-5.261c3.112,2.148,3.642,6.881,5.665,10.117
		c2.651,0.087,2.343-2.785,4.452-3.237c2.932,4.893,7.386,8.263,10.117,13.354c10.761-15.821-12.627-21.699-19.829-28.328
		C299.477,183.994,306.342,182.025,309.413,179.421z M319.53,169.304c-1.525,4.623,2.593,6.389,6.475,6.88
		c-0.053-2.885,1.695-3.969,2.023-6.475C326.445,167.36,321.463,167.11,319.53,169.304z M358.379,167.685
		c-4.98,6.258-18.496,7.736-27.113,3.643c-2.436,5.89-6.443,19.037,3.237,19.829c2.311-1.466,3.438-4.115,4.855-6.475
		c-2.545,0.412-5.901-1.847-3.642-3.642c4.355,8.078,17.291-5.939,20.639,3.642c-2.697,0-5.396,0-8.093,0
		c-1.65,4.015-2.21,9.122-2.024,14.973c4.067,2.708,8.479-0.407,13.76,0c-1.476-7.066,0.641-13.882,6.475-14.973
		C367.303,175.489,365.575,168.852,358.379,167.685z M177.892,179.826c-0.298,5.129,6.153,8.957,10.926,8.903
		c7.88-0.089,14.067-6.457,14.164-14.164C196.602,168.392,178.339,172.117,177.892,179.826z M173.036,203.297
		c7.976-0.387,11.049-5.678,11.331-13.76c-11.241,2.338-7.108-10.697-11.736-14.973
		C170.905,183.293,168.315,195.941,173.036,203.297z M162.918,176.184c-6.403,1.691-12.77,3.417-19.021,5.261
		c0,2.023,0,4.047,0,6.07c2.491-0.342,4.492-1.173,7.689-0.81c4.501,3.593,3.044,13.144,12.95,11.332
		C168.148,192.635,168.944,179.479,162.918,176.184z M309.413,181.849c-1.505,7.25,10.617,18.503,18.615,12.141
		c-1.192-4.879-4.24-7.901-3.643-14.569C319.729,177.171,310.432,176.938,309.413,181.849z M219.979,182.658
		c-0.119,3.896-0.098,7.653,1.214,10.117c4.793-1.412,11.47-0.939,16.996-1.619c-1.074-3.358,0.216-6.788,0.405-10.117
		C232.333,178.6,225.218,180.676,219.979,182.658z M193.27,194.394c1.45-0.192,2.338-0.658,3.642,0
		c2.202,7.431,5.867,1.342,10.926,0c3.776-1,6.48,0.404,10.522,0c0.691-4.602-2.714-5.109-2.023-9.712
		C205.866,183.546,194.388,184.836,193.27,194.394z M130.949,187.919c-1.395,4.01-2.872,11.833,0,15.378
		c5.495,0.639,8.376-1.335,11.331-3.237c-0.201,4.518,3.96,4.673,6.88,6.069C154.268,193.491,144.223,184.745,130.949,187.919z
		 M332.884,194.799c-1.279,10.272,7.215,19.499,13.76,11.331c0-7.15-3.912-10.385-7.285-14.164
		C339.18,194.889,336.065,194.878,332.884,194.799z M161.3,306.086c-4.373,2.947-5.024,14.598-0.809,18.211
		c5.894-0.717,12.952-2.423,16.187-4.451c5.192,25.072,15.231,40.775,34.803,50.99c7.007,3.655,15.749,8.375,25.09,7.688
		c6.856-0.504,11.468-5.478,19.021-5.262c6.36,0.182,10.588,5.08,16.591,5.262c6.638,0.2,13.987-4.346,18.616-7.285
		c14.93-9.479,23.403-22.056,27.113-41.276c2.317-12.008,1.971-25.36,5.261-36.826c1.048-3.652,3.753-7.233,4.451-10.117
		c1.62-6.677,1.173-14.382,0.811-20.233c-1.48-23.815-14.456-42.961-24.687-57.87c-29.136-8.62-84.082-18.31-107.645,1.619
		c-10.907,9.225-18.514,30.202-22.662,45.324c-5.02,18.301-3.003,41.254,0.809,59.894
		C173.111,306.933,167.455,304.545,161.3,306.086z M181.129,205.725c1.66,2.522,3.363,5,6.88,5.666
		c1.266-6.018,6.244-8.324,8.093-13.76C188.839,194.003,182.538,199.688,181.129,205.725z M322.768,198.036
		c-1.696,6.667-2.419,14.307-3.237,21.853c3.11-0.278,3.673,1.992,6.879,1.619c0.703-4.828,0.69-10.371,8.094-8.499
		c0.117-6.727-3.794-9.425-4.856-14.973C327.354,198.036,325.061,198.036,322.768,198.036z M159.276,213.009
		c0.25-5.28,3.943-7.117,4.856-11.736C154.546,192.469,144.982,213.372,159.276,213.009z M349.881,203.297
		c-2.32,3.915-3.835,12.005,0.405,14.973c3.641-2.468,6.122-8.421,12.949-5.261c-0.659-1.303-0.192-2.192,0-3.642
		c1.548-1.151,3.506-1.891,5.261-2.833c0.649-1.497,0.59-4.234-0.405-5.261C360.599,200.525,357.1,203.771,349.881,203.297z
		 M164.132,219.889c8.542,0.178,9.73-6.997,10.117-14.973c-3.372,0-6.745,0-10.117,0
		C164.32,210.483,160.715,215.766,164.132,219.889z M142.279,218.27c-1.013-3.978-1.488-8.493-3.237-11.735
		c-1.753,0-3.507,0-5.261,0C132.956,213.928,134.7,220.595,142.279,218.27z M144.303,208.153c-0.896,3.518-0.558,9.147,2.428,10.117
		c1.807-2.24,4.66-3.433,4.452-7.689C149.529,209.133,147.727,207.832,144.303,208.153z M177.892,210.177
		c-0.925,5.232-8.822,8.757-4.856,14.973c7.314,1.245,4.271-7.869,11.331-6.88C184.514,213.266,181.816,211.108,177.892,210.177z
		 M366.473,213.414c-3.6,3.996-18.236,8.13-19.829,13.759c-1.999,7.063,0.684,19.165,0,27.518
		c-2.556,31.234-3.69,72.65,1.619,98.743c6.576,4.542,21.231,3.741,29.945,1.619c-1.803-10.815,2.596-17.911,5.262-25.495
		c-2.632-4.113-9.37-4.12-14.974-5.261c-0.089-14.875,4.13-28.557,1.619-43.301c11.136,8.047,0.358,24.581,1.618,38.444
		c5.558,0.874,10.739-1.141,13.76-4.048c0.516-6.046-2.763-8.297-2.023-14.567c3.861,1.14,7.447-1.07,10.116-2.429
		c-1.522-15.204-11.401-22.052-17.401-32.778c-8.411,1.528-16.397-0.497-17.806-7.285c3.899-3.847,11.69,2.219,14.974-2.832
		c3.379-12.473-12.241-9.3-18.211-13.759c5.756-2.305,13.542-0.65,19.829,0C375.416,229.021,373.293,218.869,366.473,213.414z
		 M151.183,216.651c0.782,3.13-1.711,5.975-3.642,7.689c4.88,3.078,4.826,11.091,6.475,17.401c2.702-0.265,6.47,0.534,8.499-0.404
		c-4.525-4.45-3.349-14.749-1.619-21.449C158.135,218.561,155.551,215.037,151.183,216.651z M338.146,227.173
		c1.956,1.473,4.309,0.117,6.475-0.404C345.746,218.191,335.948,219.883,338.146,227.173z M140.661,433.965
		c72.053,4.228,149.786,1.24,220.956-1.618c3.122-6.585,2.147-18.166,0-25.09c-58.92-7.957-129.296,3.981-188.176-4.048
		c15.008-0.77,16.69-24.869,9.308-35.207c-5.875-1.327-8.984,3.302-14.569,2.023c-3.398-0.777-8.894-7.759-11.331-11.735
		c-5.827-9.506-7.276-21.499-0.809-29.138c-6.379-34.283,4.974-85.43-14.164-107.645c-5.755,0.571-10.38-1.085-13.759,0.809
		c-5.579,3.128-5.968,16.685-9.308,21.448c5.649,3.75,18.221-3.188,21.853,3.237c-5.735,3.157-19.826,1.521-18.615,9.307
		c0.987,6.343,15.182,2.727,16.997,9.309c-19.468,7.321-14.402,44.266-8.902,61.916c-6.527-2.586-12.714,1.006-14.569,5.666
		c4.809,7.853-3.063,14.521-2.024,21.042c1.322,8.295,19.023,8.977,27.923,5.262c2.585-1.079,4.178-3.572,6.879-4.451
		c7.968,5.791,0.194,27.324,15.378,25.9c-5.036,2.799-14.059,5.887-10.522,14.567c6.935,0.309,10.327-6.387,17.806-6.88
		c-2.419,4.924-12.483,7.845-5.261,12.546c0.986,0.641,3.325,0.837,2.833,1.619C148.525,394.653,136.926,412.232,140.661,433.965z
		 M326.409,236.886c3.849,1.148,5.74-1.705,9.712-1.619c-0.466-4.12-2.266-6.906-1.618-12.141
		C325.792,217.636,321.804,231.154,326.409,236.886z M170.607,234.862c0.633,1.246,0.319-1.792,1.619-1.213
		c1.575,0.717,1.588,2.998,3.642,3.237c-0.641-4.689,1.544-6.55,2.024-10.117c-2.833,0-5.666,0-8.499,0
		C170.098,230.065,167.742,234.047,170.607,234.862z M328.028,295.159c2.259,2.462,4.859,4.582,8.498,5.666
		c9.613-13.493,4.727-38.438,4.856-59.083c-4.679-0.854-11.747-1.471-14.974-2.428C332.461,253.411,334.724,279.895,328.028,295.159
		z M167.774,243.765c0.154,3.083,1.224,5.251,3.237,6.475c0.799-2.894,5.157-4.219,3.237-8.499
		C171.619,241.944,170.358,243.516,167.774,243.765z M160.085,245.384c-0.946-0.096-0.657,0.46-0.809,1.214
		c-3.051,15.071-9.103,52.449,8.498,55.846c2.785-16.056-8.955-34.955,1.619-47.348
		C166.877,251.272,165.565,246.244,160.085,245.384z M122.45,322.678c8.43-7.351-3.639-15.385-3.642-23.876
		c-0.004-8.945,14.179-21.372,2.023-27.923c-0.023-0.247-0.061-0.479-0.405-0.405c-3.631,4.535-6.02,8.721-9.712,16.187
		c-2.449,4.952-8.064,12.787-6.88,16.188c1.13,3.249,5.431,2.111,7.689,4.856c0.908,3.139,0.161,7.932,0.404,11.735
		C113.596,322.126,117.967,324.144,122.45,322.678z M341.788,311.348c-1.281-11.629-20.469-8.36-15.783,6.069
		c4.661-0.815,8.757,3.108,13.759,2.023C340.699,316.429,342.183,314.943,341.788,311.348z M326.814,328.747
		c-4.212,10.407,6.39,26.543,16.187,25.9c0.063-10.045-0.816-19.147-1.618-28.327C336.199,322.944,328.822,323.784,326.814,328.747z
		 M155.229,340.08c-0.587,6.377,1.624,15.883,6.07,16.187c9.307,0.635,8.672-20.579,9.712-28.328
		C161.269,324.372,156.06,331.064,155.229,340.08z M171.012,353.029c3.156,2.374,9.268,1.795,13.354,3.237
		c-1.759-9.303,0.223-22.346-9.712-23.472C173.201,339.301,170.974,345.033,171.012,353.029z M320.338,356.267
		c9.373-0.546,8.552-16.707-0.808-16.592c-2.215,3.991-6.035,6.376-5.262,13.354C316.697,353.508,318.621,356.399,320.338,356.267z
		 M324.791,359.908c3.318-0.62,4.26,1.137,6.88,1.214C336.687,354.803,324.707,353.065,324.791,359.908z M164.537,358.29
		c-0.862,10.065,13.82,11.382,16.592,3.643C179.057,356.922,170.073,356.399,164.537,358.29z M316.293,370.431
		c4.253,7.886,1.611,22.668,6.475,29.946c8.615,1.995,22.631,4.605,23.471-6.07c-1.889-4.049-12.279-1.747-12.949-5.666
		c3.947,0.17,7.555,0,9.712-1.618c2.13-6.995-5.534-7.312-8.498-10.522c5.481-3.557,11.089-9.144,9.712-18.21
		C335.074,362.504,320.834,361.618,316.293,370.431z M188.009,398.758c5.64,1.644,11.048,3.521,18.615,3.237
		c0.659-2.693-1.587-4.603-0.81-6.069c26.204,11.085,75.174,8.248,96.719-3.643c-0.545,4.312-7.527,2.186-6.88,7.688
		c5.397,0.943,12.544,0.137,18.615,0.405c2.467-12.212-1.169-24.878-3.237-35.207c-8.411,2.534-14.851,7.85-22.662,11.735
		c-7.913,3.936-16.877,5.567-28.328,6.069c-30.102,1.324-55.169-8.916-71.628-22.256c-0.022-0.247-0.06-0.479-0.404-0.405
		C185.301,372.514,194.785,387.329,188.009,398.758z M367.687,433.56c4.625,5.709,17.125,0.542,26.305,2.024
		c2.434-3.995,0.945-9.496,1.214-15.378c-5.48-5.925-18.871-0.269-26.709-2.833C369.28,423.859,364.097,429.129,367.687,433.56z
		 M105.454,435.989c9.205,3.348,22.626,1.023,30.351-2.024c0-4.991,0-9.981,0-14.973
		C120.191,417.347,99.375,417.315,105.454,435.989z"/>
	<path fill-rule="evenodd" clip-rule="evenodd" fill="#FFFFFF" d="M174.249,311.752c-3.812-18.64-5.829-41.593-0.809-59.894
		c4.148-15.122,11.755-36.099,22.662-45.324c23.563-19.929,78.509-10.238,107.645-1.619c10.23,14.909,23.206,34.055,24.687,57.87
		c0.362,5.852,0.81,13.557-0.811,20.233c-0.698,2.884-3.403,6.465-4.451,10.117c-3.29,11.466-2.943,24.818-5.261,36.826
		c-3.71,19.221-12.184,31.797-27.113,41.276c-4.629,2.939-11.979,7.485-18.616,7.285c-6.003-0.182-10.23-5.08-16.591-5.262
		c-7.553-0.216-12.165,4.758-19.021,5.262c-9.341,0.687-18.083-4.033-25.09-7.688c-19.571-10.215-29.611-25.918-34.803-50.99
		c-3.234,2.028-10.292,3.734-16.187,4.451c-4.215-3.613-3.563-15.264,0.809-18.211C167.455,304.545,173.111,306.933,174.249,311.752
		z M289.987,234.862c-32.423,2.523-39.063,34.588-29.541,64.344c-9.347,5.828-26.259,2.303-35.207-1.618
		c5.035,16.69,40.41,12.062,50.18,2.832c-2.725-12.1-14.716-19.301-15.782-33.184c-2.32-30.219,36.343-18.707,52.608-30.756
		C304.557,235.696,298.374,234.21,289.987,234.862z M236.975,249.431c-3.932-12.008-33.484-16.811-46.539-9.308
		c-1.167,0.67-3.677,1.671-3.237,3.237c18.242-4.302,37.373,3.122,46.943,10.927c0.747,0.608,1.359,2.765,2.833,2.022
		C237.521,254.177,237.729,251.733,236.975,249.431z M189.627,255.096c2.635,14.911,23.906,13.302,38.849,10.522
		c-1.557-4.108-2.87-8.461-3.237-13.76C214.625,245.418,198.83,251.479,189.627,255.096z M275.824,251.858
		c-0.113,1.732,1.237,2.001,0.809,4.048c-1.769,3.355-6.046,4.205-6.069,9.307c11.999,5.438,35.551,5.69,38.85-7.688
		C303.737,250.272,287.576,249.268,275.824,251.858z M209.861,322.678c-0.032,6.777,7.22,6.269,13.354,6.88
		c4.878,23.95,53.674,20.453,57.87-1.619c6.061,0.532,9.614-1.445,9.712-6.879C264.423,322.203,237.369,322.666,209.861,322.678z"/>
</g>
</svg>
