<svg viewBox="0 0 374 172" preserveAspectRatio="xMidYMid meet" xmlns="http://www.w3.org/2000/svg" xmlns:xlink="http://www.w3.org/1999/xlink"><g class="logo__item" id="logo__item--business">
                <g class="logo__item__inner" transform="translate(1.633331298828125 163.65874439461885) scale(1 1) rotate(0 0 0)">
                    <text transform="scale(1) translate(35,-15) rotate(0 503.06666564941406 579.2833023071289)" style="position: relative;" id="text-0" font-style="normal" font-weight="normal" letter-spacing="0" fill="#665C5C" font-size="32px" font-family="'Montserrat-Bold'" alignment-baseline="auto" dominant-baseline="auto" dy="">Oakleaf Home Laundry</text>
                </g>
            </g><g class="logo__item" id="logo__item--logo_0">
    <g transform="translate(113.03049327354256 -5.5) scale(1.377578475336323 1.377578475336323) rotate(0 0 0)" class="logo__item__inner">
        
<g>
	<path id="path-0" fill="#665C5C" d="M56.584,82.203c-5.338-6.672-10.667-13.925-10.487-23.898c0.188-9.888,4.73-18.184,6.971-26.382   c2.24-8.233,3.293-16.675,0.924-24.771c-0.086-0.287-0.172-0.505-0.428-0.505c-0.205,0-0.368,0.201-0.428,0.496   c-1.386,9.268-6.082,18.061-12.633,26.759c-6.312,8.391-17.646,19.813-17.663,32.973c-0.017,16.234,14.994,26.721,30.852,26.884   c2.96-0.026,5.876-0.428,8.673-1.146C61.355,88.771,58.209,84.229,56.584,82.203z"></path>
	<path transform="" style="position: relative; fill: rgb(180, 225, 191); stroke: none;" id="path-1" fill="#B4E1BF" d="M57.602,40.163c3.232,12.359,14.267,21.923,14.882,35.068c0.231,4.927-1.787,9.537-4.884,13.215   c2.198-4.003,2.763-8.792,1.617-13.479c-1.873-7.732-8.22-12.095-12.428-18.39c-2.78-4.148-3.619-7.433-2.865-12.261   c-2.48,5.842-4.543,12.637-3.422,18.685c1.301,7.005,4.61,10.246,9.939,17.166c2.48,3.216,4.661,7.903,5.123,11.462   c10.743-3.85,19.005-12.711,18.988-24.754c-0.017-13.249-9.409-20.421-17.586-29.243c-3.737-4.028-9.02-11.308-9.221-16.987l0,0   C56.584,28.719,56.275,35.04,57.602,40.163z"></path>
</g>

    </g>
</g></svg>