<!--?xml version="1.0" encoding="utf-8"?-->
<!-- Generator: Adobe Illustrator 15.0.2, SVG Export Plug-In . SVG Version: 6.00 Build 0)  -->

<svg xmlns="http://www.w3.org/2000/svg" xmlns:xlink="http://www.w3.org/1999/xlink" width="50px" height="50px" viewBox="0 0 50 50">
<path d="M14.458,47.145c0.042,0.311,0.45,0.389,0.633,0.148c0.265-0.339,3.659-4.463,4.811-8.592
	c0.329-1.168,1.875-7.219,1.875-7.219c0.926,1.744,3.634,3.277,6.513,3.277c8.566,0,14.377-7.697,14.377-17.997
	c0-7.789-6.697-15.045-16.87-15.045c-12.662,0-19.048,8.947-19.048,16.405c0,4.515,1.733,8.534,5.456,10.03
	c0.611,0.246,1.158,0.008,1.335-0.654c0.121-0.463,0.413-1.623,0.546-2.111c0.176-0.656,0.108-0.888-0.384-1.461
	c-1.076-1.245-1.76-2.862-1.76-5.151c0-6.633,5.043-12.573,13.12-12.573c7.157,0,11.091,4.306,11.091,10.061
	c0,7.573-3.401,13.961-8.446,13.961c-2.792,0-4.88-2.271-4.211-5.06c0.804-3.325,2.356-6.913,2.356-9.317
	c0-2.146-1.173-3.943-3.596-3.943c-2.851,0-5.142,2.911-5.142,6.8c0,2.479,0.853,4.154,0.853,4.154s-2.917,12.178-3.428,14.31
	C13.522,41.415,14.386,46.621,14.458,47.145" id="path-0" style="position: relative; fill: rgb(153, 153, 153);" fill="#999999"></path>
</svg>
